<svg width="20" height="21" viewBox="0 0 20 21" fill="none" xmlns="http://www.w3.org/2000/svg">
<g clip-path="url(#clip0_197_1181)">
<path d="M6.96721 1.15778C4.9689 1.85101 3.24556 3.16679 2.05032 4.91184C0.855082 6.6569 0.250946 8.73925 0.326651 10.853C0.402355 12.9668 1.15391 15.0006 2.47092 16.6557C3.78794 18.3108 5.60099 19.4999 7.64377 20.0484C9.2999 20.4757 11.035 20.4945 12.7 20.1031C14.2083 19.7643 15.6028 19.0396 16.7469 18C17.9376 16.8849 18.802 15.4663 19.2469 13.8968C19.7304 12.19 19.8164 10.3952 19.4985 8.64997H10.1985V12.5078H15.5844C15.4768 13.1231 15.2461 13.7103 14.9062 14.2344C14.5663 14.7585 14.1242 15.2086 13.6063 15.5578C12.9487 15.993 12.2073 16.2857 11.4297 16.4172C10.6499 16.5622 9.85011 16.5622 9.07033 16.4172C8.27995 16.2539 7.53227 15.9277 6.87502 15.4593C5.819 14.7118 5.02608 13.6498 4.6094 12.425C4.18579 11.1771 4.18579 9.82437 4.6094 8.57653C4.906 7.70187 5.39632 6.90549 6.04377 6.24684C6.7847 5.47926 7.72273 4.93059 8.75495 4.66102C9.78718 4.39146 10.8737 4.41142 11.8953 4.71872C12.6935 4.9636 13.4233 5.39165 14.0266 5.96872C14.6339 5.36455 15.2401 4.75882 15.8453 4.15153C16.1578 3.82497 16.4985 3.51403 16.8063 3.17965C15.8852 2.32265 14.8042 1.65575 13.625 1.21715C11.4777 0.437451 9.12811 0.416497 6.96721 1.15778Z" fill="white"/>
<path d="M6.96721 1.15781C9.12794 0.41602 11.4775 0.436422 13.625 1.21562C14.8044 1.6572 15.8849 2.32731 16.8047 3.18749C16.4922 3.52187 16.1625 3.83437 15.8438 4.15937C15.2375 4.76458 14.6318 5.3677 14.0266 5.96874C13.4233 5.39168 12.6935 4.96362 11.8953 4.71874C10.874 4.41037 9.78755 4.38926 8.75506 4.65772C7.72256 4.92618 6.78395 5.47384 6.04221 6.24062C5.39476 6.89927 4.90444 7.69564 4.60784 8.57031L1.36877 6.06249C2.52816 3.76337 4.53557 2.00472 6.96721 1.15781Z" fill="#E33629"/>
<path d="M0.509419 8.54688C0.683388 7.68402 0.972428 6.84843 1.36879 6.0625L4.60786 8.57656C4.18425 9.8244 4.18425 11.1772 4.60786 12.425C3.52869 13.2583 2.449 14.0958 1.36879 14.9375C0.376842 12.963 0.0743141 10.7133 0.509419 8.54688Z" fill="#F8BD00"/>
<path d="M10.1984 8.64844H19.4984C19.8164 10.3937 19.7303 12.1885 19.2469 13.8953C18.8019 15.4648 17.9376 16.8834 16.7469 17.9984C15.7016 17.1828 14.6516 16.3734 13.6063 15.5578C14.1245 15.2082 14.5668 14.7576 14.9067 14.233C15.2467 13.7084 15.4771 13.1205 15.5844 12.5047H10.1984C10.1969 11.2203 10.1984 9.93437 10.1984 8.64844Z" fill="#587DBD"/>
<path d="M1.36719 14.9375C2.4474 14.1042 3.52708 13.2667 4.60625 12.425C5.02376 13.6504 5.81782 14.7124 6.875 15.4594C7.5343 15.9256 8.28359 16.2492 9.075 16.4094C9.85477 16.5545 10.6546 16.5545 11.4344 16.4094C12.2119 16.278 12.9533 15.9853 13.6109 15.55C14.6562 16.3657 15.7062 17.175 16.7516 17.9907C15.6076 19.0309 14.2132 19.7561 12.7047 20.0954C11.0397 20.4868 9.30457 20.468 7.64844 20.0407C6.3386 19.6909 5.11512 19.0744 4.05469 18.2297C2.93239 17.3385 2.01568 16.2156 1.36719 14.9375Z" fill="#319F43"/>
</g>
<defs>
<clipPath id="clip0_197_1181">
<rect width="20" height="20" fill="white" transform="translate(0 0.5)"/>
</clipPath>
</defs>
</svg>
